# vertex positions below.
v -1.000000 -1.000000 1.000000
v 1.000000 -1.000000 1.000000
v 1.000000 1.000000 1.000000
v -1.000000 1.000000 1.000000
v -1.000000 1.000000 -1.000000
v 1.000000 1.000000 -1.000000
v -1.000000 -1.000000 -1.000000
v 1.000000 -1.000000 -1.000000

# vertex normals below wont be used in program.
# calculate them on the fly in your code.
vn -0.577350 -0.577350 0.577350
vn 0.577350 -0.577350 0.577350
vn 0.577350 0.577350 0.577350
vn -0.577350 0.577350 0.577350
vn -0.577350 0.577350 -0.577350
vn 0.577350 0.577350 -0.577350
vn -0.577350 -0.577350 -0.577350
vn 0.577350 -0.577350 -0.577350

f 1//1 2//2 3//3 4//4
f 2//2 8//8 6//6 3//3
f 8//8 7//7 5//5 6//6
f 7//7 1//1 4//4 5//5
f 4//4 3//3 6//6 5//5
f 7//7 8//8 2//2 1//1
